<svg width="109" height="92" viewBox="0 0 109 92" fill="none" xmlns="http://www.w3.org/2000/svg">
<g id="Group 3">
<circle id="Ellipse 1" cx="3.5" cy="3.5" r="3.5" fill="#F5F6F8" fill-opacity="0.6"/>
<circle id="Ellipse 8" cx="3.5" cy="20.5" r="3.5" fill="#F5F6F8" fill-opacity="0.6"/>
<circle id="Ellipse 15" cx="3.5" cy="37.5" r="3.5" fill="#F5F6F8" fill-opacity="0.6"/>
<circle id="Ellipse 22" cx="3.5" cy="54.5" r="3.5" fill="#F5F6F8" fill-opacity="0.6"/>
<circle id="Ellipse 29" cx="3.5" cy="71.5" r="3.5" fill="#F5F6F8" fill-opacity="0.6"/>
<circle id="Ellipse 36" cx="3.5" cy="88.5" r="3.5" fill="#F5F6F8" fill-opacity="0.6"/>
<circle id="Ellipse 2" cx="20.5" cy="3.5" r="3.5" fill="#F5F6F8" fill-opacity="0.6"/>
<circle id="Ellipse 9" cx="20.5" cy="20.5" r="3.5" fill="#F5F6F8" fill-opacity="0.6"/>
<circle id="Ellipse 16" cx="20.5" cy="37.5" r="3.5" fill="#F5F6F8" fill-opacity="0.6"/>
<circle id="Ellipse 23" cx="20.5" cy="54.5" r="3.5" fill="#F5F6F8" fill-opacity="0.6"/>
<circle id="Ellipse 30" cx="20.5" cy="71.5" r="3.5" fill="#F5F6F8" fill-opacity="0.6"/>
<circle id="Ellipse 37" cx="20.5" cy="88.5" r="3.5" fill="#F5F6F8" fill-opacity="0.6"/>
<circle id="Ellipse 3" cx="37.5" cy="3.5" r="3.5" fill="#F5F6F8" fill-opacity="0.6"/>
<circle id="Ellipse 10" cx="37.5" cy="20.5" r="3.5" fill="#F5F6F8" fill-opacity="0.6"/>
<circle id="Ellipse 17" cx="37.5" cy="37.5" r="3.5" fill="#F5F6F8" fill-opacity="0.6"/>
<circle id="Ellipse 24" cx="37.5" cy="54.5" r="3.5" fill="#F5F6F8" fill-opacity="0.6"/>
<circle id="Ellipse 31" cx="37.5" cy="71.5" r="3.5" fill="#F5F6F8" fill-opacity="0.6"/>
<circle id="Ellipse 38" cx="37.5" cy="88.5" r="3.5" fill="#F5F6F8" fill-opacity="0.6"/>
<circle id="Ellipse 4" cx="54.5" cy="3.5" r="3.5" fill="#F5F6F8" fill-opacity="0.6"/>
<circle id="Ellipse 11" cx="54.5" cy="20.5" r="3.5" fill="#F5F6F8" fill-opacity="0.6"/>
<circle id="Ellipse 18" cx="54.5" cy="37.5" r="3.5" fill="#F5F6F8" fill-opacity="0.6"/>
<circle id="Ellipse 25" cx="54.5" cy="54.5" r="3.5" fill="#F5F6F8" fill-opacity="0.6"/>
<circle id="Ellipse 32" cx="54.5" cy="71.5" r="3.5" fill="#F5F6F8" fill-opacity="0.6"/>
<circle id="Ellipse 39" cx="54.5" cy="88.5" r="3.5" fill="#F5F6F8" fill-opacity="0.6"/>
<circle id="Ellipse 5" cx="71.5" cy="3.5" r="3.5" fill="#F5F6F8" fill-opacity="0.6"/>
<circle id="Ellipse 12" cx="71.5" cy="20.5" r="3.5" fill="#F5F6F8" fill-opacity="0.6"/>
<circle id="Ellipse 19" cx="71.5" cy="37.5" r="3.5" fill="#F5F6F8" fill-opacity="0.6"/>
<circle id="Ellipse 26" cx="71.5" cy="54.5" r="3.5" fill="#F5F6F8" fill-opacity="0.6"/>
<circle id="Ellipse 33" cx="71.5" cy="71.5" r="3.5" fill="#F5F6F8" fill-opacity="0.6"/>
<circle id="Ellipse 40" cx="71.5" cy="88.5" r="3.5" fill="#F5F6F8" fill-opacity="0.6"/>
<circle id="Ellipse 6" cx="88.5" cy="3.5" r="3.5" fill="#F5F6F8" fill-opacity="0.6"/>
<circle id="Ellipse 13" cx="88.5" cy="20.5" r="3.5" fill="#F5F6F8" fill-opacity="0.6"/>
<circle id="Ellipse 20" cx="88.5" cy="37.5" r="3.5" fill="#F5F6F8" fill-opacity="0.6"/>
<circle id="Ellipse 27" cx="88.5" cy="54.5" r="3.5" fill="#F5F6F8" fill-opacity="0.6"/>
<circle id="Ellipse 34" cx="88.5" cy="71.5" r="3.5" fill="#F5F6F8" fill-opacity="0.6"/>
<circle id="Ellipse 41" cx="88.5" cy="88.5" r="3.5" fill="#F5F6F8" fill-opacity="0.6"/>
<circle id="Ellipse 7" cx="105.5" cy="3.5" r="3.5" fill="#F5F6F8" fill-opacity="0.6"/>
<circle id="Ellipse 14" cx="105.5" cy="20.5" r="3.5" fill="#F5F6F8" fill-opacity="0.6"/>
<circle id="Ellipse 21" cx="105.5" cy="37.5" r="3.5" fill="#F5F6F8" fill-opacity="0.6"/>
<circle id="Ellipse 28" cx="105.5" cy="54.5" r="3.5" fill="#F5F6F8" fill-opacity="0.6"/>
<circle id="Ellipse 35" cx="105.5" cy="71.5" r="3.5" fill="#F5F6F8" fill-opacity="0.6"/>
<circle id="Ellipse 42" cx="105.5" cy="88.5" r="3.5" fill="#F5F6F8" fill-opacity="0.6"/>
</g>
</svg>
